<svg width="232" height="196" viewBox="0 0 232 196" fill="none" xmlns="http://www.w3.org/2000/svg">
<path d="M72.7441 40.5293C74.0983 42.2643 75.0293 44.0205 75.5371 45.7979C76.0872 47.5752 76.7855 52.1032 77.6318 59.3818C78.5205 66.6182 79.4303 75.2933 80.3613 85.4072C81.2923 95.5212 82.054 103.35 82.6465 108.894C83.2389 114.437 84.1699 120.764 85.4395 127.873C82.3926 128.846 78.7109 129.333 74.3945 129.333C70.1204 129.333 67.1159 128.846 65.3809 127.873C63.6035 122.795 62.2705 112.744 61.3818 97.7217L35.4834 96.5156C31.5479 117.674 24.7135 128.868 14.9805 130.095C14.5573 130.137 14.1553 130.158 13.7744 130.158C10.8122 130.158 8.10384 129.27 5.64941 127.492C3.19499 125.673 1.96777 123.493 1.96777 120.954C5.48014 118.584 8.71745 115.284 11.6797 111.052C14.6842 106.82 17.1598 102.292 19.1064 97.4678C21.0954 92.6012 22.8092 87.4596 24.248 82.043C26.8717 71.8444 28.1836 62.3652 28.1836 53.6055C28.1836 50.6009 27.8239 48.3792 27.1045 46.9404C26.3851 45.5016 24.8828 44.613 22.5977 44.2744C21.9206 43.4281 21.582 41.9258 21.582 39.7676C21.582 37.6094 21.6667 36.2552 21.8359 35.7051C33.6426 36.3398 48.9827 36.763 67.8564 36.9746C69.8031 37.5671 71.4323 38.752 72.7441 40.5293ZM60.6836 88.0732C60.472 83.5876 60.2393 77.9382 59.9854 71.125C59.7314 64.3118 59.5622 60.1012 59.4775 58.4932C59.3929 56.8428 59.266 55.2982 59.0967 53.8594C58.9274 52.3783 58.7581 51.3203 58.5889 50.6855C58.4196 50.0508 58.1445 49.4795 57.7637 48.9717C57.2559 48.2523 55.9652 47.7656 53.8916 47.5117C51.8604 47.2578 47.1208 47.1309 39.6729 47.1309C39.6729 52.6745 39.3555 59.5299 38.7207 67.6973C38.1283 75.8646 37.5358 82.2757 36.9434 86.9307H39.3555C46.6341 86.9307 53.7435 87.3115 60.6836 88.0732Z" fill="#D60000"/>
<path d="M92.2578 118.57C92.2578 117.047 93.1302 116.285 94.875 116.285C95.7604 116.285 96.6328 116.513 97.4922 116.969C97.4922 118.622 97.8372 119.892 98.5273 120.777C99.2174 121.65 100.396 122.086 102.062 122.086C103.742 122.086 104.973 121.767 105.754 121.129C106.535 120.491 106.926 119.475 106.926 118.082C106.926 116.598 106.353 115.328 105.207 114.273C104.27 113.401 103.182 112.646 101.945 112.008C100.708 111.37 99.7122 110.849 98.957 110.445C98.2018 110.029 97.4792 109.573 96.7891 109.078C96.112 108.583 95.5065 108.049 94.9727 107.477C93.8268 106.24 93.2539 104.762 93.2539 103.043C93.2539 101.311 93.7031 99.8529 94.6016 98.668C96.3594 96.3503 99.2174 95.1914 103.176 95.1914C106.223 95.1914 108.547 95.8229 110.148 97.0859C111.607 98.2448 112.336 99.5339 112.336 100.953C112.336 101.617 112.108 102.164 111.652 102.594C111.21 103.023 110.52 103.238 109.582 103.238C108.645 103.238 107.681 102.997 106.691 102.516C106.691 102.424 106.691 102.34 106.691 102.262C106.691 100.816 106.366 99.6576 105.715 98.7852C105.077 97.9128 104.107 97.4766 102.805 97.4766C101.503 97.4766 100.467 97.8411 99.6992 98.5703C98.944 99.2995 98.5664 100.374 98.5664 101.793C98.5664 103.017 99.1654 104.091 100.363 105.016C101.197 105.667 102.29 106.331 103.645 107.008C104.999 107.685 106.066 108.238 106.848 108.668C107.642 109.085 108.397 109.56 109.113 110.094C109.829 110.615 110.461 111.188 111.008 111.812C112.206 113.167 112.805 114.729 112.805 116.5C112.805 118.258 112.329 119.749 111.379 120.973C110.428 122.184 109.159 123.108 107.57 123.746C105.982 124.371 104.38 124.684 102.766 124.684C101.164 124.684 99.8099 124.553 98.7031 124.293C97.5964 124.046 96.6589 123.714 95.8906 123.297C95.1224 122.867 94.4583 122.385 93.8984 121.852C92.8047 120.81 92.2578 119.716 92.2578 118.57ZM119.387 117.711V102.047C119.387 100.406 118.911 99.3516 117.961 98.8828C117.844 98.8177 117.655 98.7461 117.395 98.668C117.147 98.5898 116.997 98.5378 116.945 98.5117C116.75 98.2513 116.652 97.8281 116.652 97.2422C116.652 96.6432 116.672 96.2266 116.711 95.9922C117.362 95.862 118.527 95.7969 120.207 95.7969C121.887 95.7969 123.612 95.862 125.383 95.9922V117.77C125.383 119.02 125.467 120.758 125.637 122.984L125.715 124C124.608 124.339 123.286 124.508 121.75 124.508C120.227 124.508 119.257 124.339 118.84 124C119.204 121.253 119.387 119.156 119.387 117.711ZM151.145 97.0859C151.561 97.6198 151.848 98.1602 152.004 98.707C152.173 99.2539 152.388 100.647 152.648 102.887C152.922 105.113 153.202 107.783 153.488 110.895C153.775 114.007 154.009 116.415 154.191 118.121C154.374 119.827 154.66 121.773 155.051 123.961C154.113 124.26 152.98 124.41 151.652 124.41C150.337 124.41 149.413 124.26 148.879 123.961C148.332 122.398 147.922 119.306 147.648 114.684L139.68 114.312C138.469 120.823 136.366 124.267 133.371 124.645C133.241 124.658 133.117 124.664 133 124.664C132.089 124.664 131.255 124.391 130.5 123.844C129.745 123.284 129.367 122.613 129.367 121.832C130.448 121.103 131.444 120.087 132.355 118.785C133.28 117.483 134.042 116.09 134.641 114.605C135.253 113.108 135.78 111.526 136.223 109.859C137.03 106.721 137.434 103.805 137.434 101.109C137.434 100.185 137.323 99.5013 137.102 99.0586C136.88 98.6159 136.418 98.3424 135.715 98.2383C135.507 97.9779 135.402 97.5156 135.402 96.8516C135.402 96.1875 135.428 95.7708 135.48 95.6016C139.113 95.7969 143.833 95.9271 149.641 95.9922C150.24 96.1745 150.741 96.5391 151.145 97.0859ZM147.434 111.715C147.368 110.335 147.297 108.596 147.219 106.5C147.141 104.404 147.089 103.108 147.062 102.613C147.036 102.105 146.997 101.63 146.945 101.188C146.893 100.732 146.841 100.406 146.789 100.211C146.737 100.016 146.652 99.8398 146.535 99.6836C146.379 99.4622 145.982 99.3125 145.344 99.2344C144.719 99.1562 143.26 99.1172 140.969 99.1172C140.969 100.823 140.871 102.932 140.676 105.445C140.493 107.958 140.311 109.931 140.129 111.363H140.871C143.111 111.363 145.298 111.48 147.434 111.715ZM183.566 123.922C182.759 124.104 182.173 124.195 181.809 124.195C181.457 124.195 180.578 124.117 179.172 123.961C176.477 122.086 171.652 114.632 164.699 101.598C165.298 111.142 165.793 117.9 166.184 121.871L166.379 123.844C165.22 124.169 164.081 124.332 162.961 124.332C161.854 124.332 161.099 124.169 160.695 123.844C161.034 121.786 161.203 116.467 161.203 107.887C161.203 103.434 161.158 100.94 161.066 100.406C160.988 99.8724 160.871 99.4948 160.715 99.2734C160.48 98.9609 160.207 98.7591 159.895 98.668C159.582 98.5768 159.406 98.5247 159.367 98.5117C159.172 98.2513 159.074 97.8281 159.074 97.2422C159.074 96.6432 159.094 96.2266 159.133 95.9922C159.784 95.862 160.643 95.7969 161.711 95.7969C162.779 95.7969 164.198 95.862 165.969 95.9922C166.698 96.3177 167.642 97.2682 168.801 98.8438C169.96 100.406 171.053 102.073 172.082 103.844C173.124 105.615 174.419 107.848 175.969 110.543C177.531 113.225 178.788 115.322 179.738 116.832L178.723 96.207C179.712 95.9076 180.65 95.7578 181.535 95.7578C182.434 95.7578 183.111 95.9466 183.566 96.3242C183.462 97.6263 183.41 100.829 183.41 105.934C183.41 111.038 183.462 117.034 183.566 123.922ZM92.4727 153C92.7982 154.523 92.9609 156.294 92.9609 158.312C92.9609 158.456 92.9609 158.592 92.9609 158.723L92.9023 162.355L100.559 161.926C100.767 162.173 100.871 162.681 100.871 163.449C100.871 164.217 100.806 164.973 100.676 165.715C99.9596 165.819 99.0286 165.871 97.8828 165.871C96.737 165.871 95.0768 165.741 92.9023 165.48L92.8633 171.047C92.8633 173.612 93.0391 175.93 93.3906 178C92.2839 178.339 90.9362 178.508 89.3477 178.508C87.7721 178.508 86.776 178.339 86.3594 178C86.75 174.523 86.9453 170.428 86.9453 165.715V155.031C86.9453 154.146 86.8216 153.553 86.5742 153.254C86.3398 152.941 85.8906 152.681 85.2266 152.473C85.0312 152.212 84.9336 151.796 84.9336 151.223C84.9336 150.637 84.9531 150.227 84.9922 149.992C86.099 149.979 87.668 149.966 89.6992 149.953C91.7305 149.94 93.2539 149.927 94.2695 149.914C97.0951 149.875 100.643 149.771 104.914 149.602C105.122 149.784 105.227 150.624 105.227 152.121C105.227 153.618 105.025 154.751 104.621 155.52C104.217 156.288 103.462 156.672 102.355 156.672C101.249 156.672 100.474 156.327 100.031 155.637V153.273C96.2292 153.091 93.7096 153 92.4727 153ZM137.355 163.352C137.355 167.062 136.522 170.201 134.855 172.766C133.189 175.318 130.793 177.062 127.668 178C126.171 178.443 124.543 178.664 122.785 178.664C121.04 178.664 119.289 178.352 117.531 177.727C115.773 177.089 114.198 176.197 112.805 175.051C111.424 173.892 110.318 172.414 109.484 170.617C108.651 168.82 108.234 166.841 108.234 164.68C108.234 160.643 109.165 157.368 111.027 154.855C112.889 152.342 115.572 150.617 119.074 149.68C120.285 149.354 121.574 149.191 122.941 149.191C124.322 149.191 125.708 149.38 127.102 149.758C128.495 150.135 129.803 150.715 131.027 151.496C132.264 152.277 133.358 153.208 134.309 154.289C136.34 156.607 137.355 159.628 137.355 163.352ZM117.16 172.57C117.967 173.612 118.905 174.413 119.973 174.973C121.04 175.533 122.167 175.812 123.352 175.812C124.536 175.812 125.585 175.598 126.496 175.168C127.421 174.738 128.176 174.172 128.762 173.469C129.348 172.753 129.836 171.906 130.227 170.93C130.93 169.172 131.281 167.089 131.281 164.68C131.281 161.021 130.415 158.007 128.684 155.637C126.952 153.267 124.829 152.082 122.316 152.082C121.327 152.082 120.363 152.264 119.426 152.629C118.501 152.993 117.701 153.579 117.023 154.387C116.359 155.181 115.858 156.099 115.52 157.141C114.868 159.068 114.543 161.066 114.543 163.137C114.543 165.207 114.777 167.036 115.246 168.625C115.715 170.214 116.353 171.529 117.16 172.57ZM171.301 163.352C171.301 167.062 170.467 170.201 168.801 172.766C167.134 175.318 164.738 177.062 161.613 178C160.116 178.443 158.488 178.664 156.73 178.664C154.986 178.664 153.234 178.352 151.477 177.727C149.719 177.089 148.143 176.197 146.75 175.051C145.37 173.892 144.263 172.414 143.43 170.617C142.596 168.82 142.18 166.841 142.18 164.68C142.18 160.643 143.111 157.368 144.973 154.855C146.835 152.342 149.517 150.617 153.02 149.68C154.23 149.354 155.52 149.191 156.887 149.191C158.267 149.191 159.654 149.38 161.047 149.758C162.44 150.135 163.749 150.715 164.973 151.496C166.21 152.277 167.303 153.208 168.254 154.289C170.285 156.607 171.301 159.628 171.301 163.352ZM151.105 172.57C151.913 173.612 152.85 174.413 153.918 174.973C154.986 175.533 156.112 175.812 157.297 175.812C158.482 175.812 159.53 175.598 160.441 175.168C161.366 174.738 162.121 174.172 162.707 173.469C163.293 172.753 163.781 171.906 164.172 170.93C164.875 169.172 165.227 167.089 165.227 164.68C165.227 161.021 164.361 158.007 162.629 155.637C160.897 153.267 158.775 152.082 156.262 152.082C155.272 152.082 154.309 152.264 153.371 152.629C152.447 152.993 151.646 153.579 150.969 154.387C150.305 155.181 149.803 156.099 149.465 157.141C148.814 159.068 148.488 161.066 148.488 163.137C148.488 165.207 148.723 167.036 149.191 168.625C149.66 170.214 150.298 171.529 151.105 172.57ZM178 165.715L178.117 159.387C178.117 158.111 178.091 156.971 178.039 155.969C178 154.953 177.883 154.27 177.688 153.918C177.505 153.553 177.323 153.319 177.141 153.215C176.958 153.098 176.776 153.007 176.594 152.941C176.411 152.876 176.307 152.844 176.281 152.844C176.073 152.792 175.969 152.447 175.969 151.809C175.969 151.158 175.995 150.754 176.047 150.598C180.578 149.595 184.003 149.094 186.32 149.094C191.854 149.094 196.151 150.428 199.211 153.098C201.789 155.337 203.078 158.488 203.078 162.551C203.078 165.806 202.303 168.651 200.754 171.086C199.204 173.508 197.069 175.35 194.348 176.613C191.639 177.863 188.527 178.488 185.012 178.488C183.085 178.488 181.281 178.326 179.602 178C178.742 177.648 178.254 176.75 178.137 175.305C178.046 174.185 178 172.499 178 170.246V165.715ZM183.996 158.234L183.801 170.109V171.438C183.801 173.924 184.029 175.35 184.484 175.715C184.953 175.793 185.454 175.832 185.988 175.832C186.522 175.832 187.238 175.812 188.137 175.773C189.035 175.721 189.992 175.441 191.008 174.934C192.036 174.426 192.98 173.697 193.84 172.746C194.699 171.796 195.383 170.533 195.891 168.957C196.398 167.368 196.652 165.669 196.652 163.859C196.652 162.036 196.444 160.461 196.027 159.133C195.624 157.805 195.09 156.704 194.426 155.832C193.775 154.96 193.02 154.224 192.16 153.625C190.52 152.492 188.833 151.926 187.102 151.926C185.37 151.926 184.178 152.017 183.527 152.199C183.84 153.566 183.996 155.188 183.996 157.062V158.234Z" fill="#D60000"/>
</svg>
