<svg width="415" height="375" viewBox="0 0 415 375" fill="none" xmlns="http://www.w3.org/2000/svg">
<path d="M156.68 87.6016C159.596 91.3385 161.602 95.1211 162.695 98.9492C163.88 102.777 165.384 112.53 167.207 128.207C169.121 143.793 171.081 162.478 173.086 184.262C175.091 206.046 176.732 222.908 178.008 234.848C179.284 246.788 181.289 260.414 184.023 275.727C177.461 277.823 169.531 278.871 160.234 278.871C151.029 278.871 144.557 277.823 140.82 275.727C136.992 264.789 134.121 243.142 132.207 210.785L76.4258 208.188C67.9492 253.76 53.2292 277.868 32.2656 280.512C31.3542 280.603 30.4883 280.648 29.668 280.648C23.2878 280.648 17.4544 278.734 12.168 274.906C6.88151 270.987 4.23828 266.293 4.23828 260.824C11.8034 255.72 18.776 248.611 25.1562 239.496C31.6276 230.382 36.9596 220.629 41.1523 210.238C45.4362 199.757 49.1276 188.682 52.2266 177.016C57.8776 155.049 60.7031 134.633 60.7031 115.766C60.7031 109.294 59.9284 104.509 58.3789 101.41C56.8294 98.3112 53.5938 96.3971 48.6719 95.668C47.2135 93.8451 46.4844 90.6094 46.4844 85.9609C46.4844 81.3125 46.6667 78.3958 47.0312 77.2109C72.4609 78.5781 105.501 79.4896 146.152 79.9453C150.345 81.2214 153.854 83.7734 156.68 87.6016ZM130.703 190.004C130.247 180.342 129.746 168.174 129.199 153.5C128.652 138.826 128.288 129.757 128.105 126.293C127.923 122.738 127.65 119.411 127.285 116.312C126.921 113.122 126.556 110.844 126.191 109.477C125.827 108.109 125.234 106.879 124.414 105.785C123.32 104.236 120.54 103.188 116.074 102.641C111.699 102.094 101.491 101.82 85.4492 101.82C85.4492 113.76 84.7656 128.526 83.3984 146.117C82.1224 163.708 80.8464 177.517 79.5703 187.543H84.7656C100.443 187.543 115.755 188.363 130.703 190.004Z" fill="white"/>
<path d="M184.318 243.57C184.318 241.285 185.627 240.142 188.244 240.142C189.572 240.142 190.88 240.484 192.17 241.168C192.17 243.648 192.687 245.552 193.722 246.88C194.757 248.189 196.525 248.843 199.025 248.843C201.545 248.843 203.39 248.365 204.562 247.408C205.734 246.451 206.32 244.927 206.32 242.838C206.32 240.611 205.461 238.707 203.742 237.125C202.336 235.816 200.705 234.683 198.849 233.726C196.994 232.769 195.5 231.988 194.367 231.382C193.234 230.757 192.15 230.074 191.115 229.332C190.099 228.589 189.191 227.789 188.39 226.929C186.672 225.074 185.812 222.857 185.812 220.279C185.812 217.681 186.486 215.494 187.834 213.716C190.47 210.24 194.757 208.502 200.695 208.502C205.265 208.502 208.752 209.449 211.154 211.343C213.341 213.082 214.435 215.015 214.435 217.144C214.435 218.14 214.093 218.961 213.41 219.605C212.746 220.25 211.711 220.572 210.304 220.572C208.898 220.572 207.453 220.211 205.968 219.488C205.968 219.351 205.968 219.224 205.968 219.107C205.968 216.939 205.48 215.201 204.504 213.892C203.547 212.584 202.091 211.929 200.138 211.929C198.185 211.929 196.632 212.476 195.48 213.57C194.347 214.664 193.781 216.275 193.781 218.404C193.781 220.24 194.679 221.851 196.476 223.238C197.726 224.214 199.367 225.211 201.398 226.226C203.429 227.242 205.031 228.072 206.203 228.716C207.394 229.341 208.527 230.054 209.601 230.855C210.675 231.636 211.623 232.496 212.443 233.433C214.24 235.464 215.138 237.808 215.138 240.464C215.138 243.101 214.425 245.338 213 247.173C211.574 248.99 209.67 250.377 207.287 251.334C204.904 252.271 202.502 252.74 200.08 252.74C197.677 252.74 195.646 252.545 193.986 252.154C192.326 251.783 190.92 251.285 189.767 250.66C188.615 250.015 187.619 249.293 186.779 248.492C185.138 246.929 184.318 245.289 184.318 243.57ZM225.011 242.281V218.785C225.011 216.324 224.298 214.742 222.873 214.039C222.697 213.941 222.414 213.834 222.023 213.716C221.652 213.599 221.427 213.521 221.349 213.482C221.056 213.091 220.91 212.457 220.91 211.578C220.91 210.679 220.939 210.054 220.998 209.703C221.974 209.507 223.722 209.41 226.242 209.41C228.761 209.41 231.349 209.507 234.005 209.703V242.369C234.005 244.244 234.132 246.851 234.386 250.191L234.504 251.714C232.843 252.222 230.861 252.476 228.556 252.476C226.271 252.476 224.816 252.222 224.191 251.714C224.738 247.593 225.011 244.449 225.011 242.281ZM272.648 211.343C273.273 212.144 273.703 212.955 273.937 213.775C274.191 214.595 274.513 216.685 274.904 220.045C275.314 223.384 275.734 227.388 276.164 232.056C276.593 236.724 276.945 240.338 277.218 242.896C277.492 245.455 277.922 248.375 278.507 251.656C277.101 252.105 275.402 252.33 273.41 252.33C271.437 252.33 270.05 252.105 269.25 251.656C268.429 249.312 267.814 244.673 267.404 237.74L255.451 237.183C253.634 246.949 250.48 252.115 245.988 252.681C245.793 252.701 245.607 252.711 245.431 252.711C244.064 252.711 242.814 252.3 241.681 251.48C240.548 250.64 239.982 249.634 239.982 248.463C241.603 247.369 243.097 245.845 244.464 243.892C245.851 241.939 246.994 239.849 247.892 237.623C248.81 235.377 249.601 233.004 250.265 230.504C251.476 225.797 252.082 221.422 252.082 217.379C252.082 215.992 251.916 214.966 251.584 214.302C251.252 213.638 250.558 213.228 249.504 213.072C249.191 212.681 249.035 211.988 249.035 210.992C249.035 209.996 249.074 209.371 249.152 209.117C254.601 209.41 261.681 209.605 270.392 209.703C271.291 209.976 272.043 210.523 272.648 211.343ZM267.082 233.287C266.984 231.216 266.877 228.609 266.759 225.464C266.642 222.32 266.564 220.377 266.525 219.634C266.486 218.873 266.427 218.16 266.349 217.496C266.271 216.812 266.193 216.324 266.115 216.031C266.037 215.738 265.91 215.474 265.734 215.24C265.5 214.908 264.904 214.683 263.947 214.566C263.009 214.449 260.822 214.39 257.384 214.39C257.384 216.949 257.238 220.113 256.945 223.882C256.672 227.652 256.398 230.611 256.125 232.759H257.238C260.597 232.759 263.879 232.935 267.082 233.287ZM321.281 251.597C320.07 251.871 319.191 252.007 318.644 252.007C318.117 252.007 316.798 251.89 314.689 251.656C310.646 248.843 303.41 237.662 292.98 218.111C293.879 232.427 294.621 242.564 295.207 248.521L295.5 251.48C293.761 251.968 292.052 252.213 290.373 252.213C288.713 252.213 287.58 251.968 286.974 251.48C287.482 248.394 287.736 240.416 287.736 227.545C287.736 220.865 287.668 217.125 287.531 216.324C287.414 215.523 287.238 214.957 287.004 214.625C286.652 214.156 286.242 213.853 285.773 213.716C285.304 213.58 285.041 213.502 284.982 213.482C284.689 213.091 284.543 212.457 284.543 211.578C284.543 210.679 284.572 210.054 284.63 209.703C285.607 209.507 286.896 209.41 288.498 209.41C290.099 209.41 292.228 209.507 294.884 209.703C295.978 210.191 297.394 211.617 299.132 213.98C300.871 216.324 302.511 218.824 304.054 221.48C305.617 224.136 307.56 227.486 309.884 231.529C312.228 235.552 314.113 238.697 315.539 240.963L314.015 210.025C315.5 209.576 316.906 209.351 318.234 209.351C319.582 209.351 320.597 209.634 321.281 210.201C321.125 212.154 321.047 216.959 321.047 224.615C321.047 232.271 321.125 241.265 321.281 251.597ZM184.64 294.214C185.129 296.5 185.373 299.156 185.373 302.183C185.373 302.398 185.373 302.603 185.373 302.798L185.285 308.248L196.769 307.603C197.082 307.974 197.238 308.736 197.238 309.888C197.238 311.041 197.14 312.173 196.945 313.287C195.871 313.443 194.474 313.521 192.755 313.521C191.037 313.521 188.547 313.326 185.285 312.935L185.226 321.285C185.226 325.132 185.49 328.609 186.017 331.714C184.357 332.222 182.336 332.476 179.953 332.476C177.589 332.476 176.095 332.222 175.47 331.714C176.056 326.5 176.349 320.357 176.349 313.287V297.261C176.349 295.933 176.164 295.045 175.793 294.595C175.441 294.127 174.767 293.736 173.771 293.423C173.478 293.033 173.332 292.408 173.332 291.548C173.332 290.67 173.361 290.054 173.42 289.703C175.08 289.683 177.433 289.664 180.48 289.644C183.527 289.625 185.812 289.605 187.336 289.586C191.574 289.527 196.896 289.371 203.302 289.117C203.615 289.39 203.771 290.65 203.771 292.896C203.771 295.142 203.468 296.841 202.863 297.994C202.257 299.146 201.125 299.722 199.464 299.722C197.804 299.722 196.642 299.205 195.978 298.17V294.625C190.275 294.351 186.496 294.214 184.64 294.214ZM251.964 309.742C251.964 315.308 250.714 320.015 248.214 323.863C245.714 327.691 242.121 330.308 237.433 331.714C235.187 332.379 232.746 332.711 230.109 332.711C227.492 332.711 224.865 332.242 222.228 331.304C219.591 330.347 217.228 329.009 215.138 327.291C213.068 325.552 211.408 323.336 210.158 320.64C208.908 317.945 208.283 314.976 208.283 311.734C208.283 305.679 209.679 300.767 212.472 296.998C215.265 293.228 219.289 290.64 224.543 289.234C226.359 288.746 228.293 288.502 230.343 288.502C232.414 288.502 234.494 288.785 236.584 289.351C238.673 289.918 240.636 290.787 242.472 291.959C244.328 293.13 245.968 294.527 247.394 296.148C250.441 299.625 251.964 304.156 251.964 309.742ZM221.672 323.57C222.882 325.132 224.289 326.334 225.89 327.173C227.492 328.013 229.181 328.433 230.959 328.433C232.736 328.433 234.308 328.111 235.675 327.466C237.062 326.822 238.195 325.972 239.074 324.918C239.953 323.843 240.685 322.574 241.271 321.109C242.326 318.472 242.853 315.347 242.853 311.734C242.853 306.246 241.554 301.724 238.957 298.17C236.359 294.615 233.175 292.838 229.406 292.838C227.922 292.838 226.476 293.111 225.07 293.658C223.683 294.205 222.482 295.084 221.466 296.295C220.47 297.486 219.718 298.863 219.211 300.425C218.234 303.316 217.746 306.314 217.746 309.42C217.746 312.525 218.097 315.269 218.8 317.652C219.504 320.035 220.461 322.007 221.672 323.57ZM302.882 309.742C302.882 315.308 301.632 320.015 299.132 323.863C296.632 327.691 293.039 330.308 288.351 331.714C286.105 332.379 283.664 332.711 281.027 332.711C278.41 332.711 275.783 332.242 273.146 331.304C270.509 330.347 268.146 329.009 266.056 327.291C263.986 325.552 262.326 323.336 261.076 320.64C259.826 317.945 259.201 314.976 259.201 311.734C259.201 305.679 260.597 300.767 263.39 296.998C266.183 293.228 270.207 290.64 275.461 289.234C277.277 288.746 279.211 288.502 281.261 288.502C283.332 288.502 285.412 288.785 287.502 289.351C289.591 289.918 291.554 290.787 293.39 291.959C295.246 293.13 296.886 294.527 298.312 296.148C301.359 299.625 302.882 304.156 302.882 309.742ZM272.589 323.57C273.8 325.132 275.207 326.334 276.808 327.173C278.41 328.013 280.099 328.433 281.877 328.433C283.654 328.433 285.226 328.111 286.593 327.466C287.98 326.822 289.113 325.972 289.992 324.918C290.871 323.843 291.603 322.574 292.189 321.109C293.244 318.472 293.771 315.347 293.771 311.734C293.771 306.246 292.472 301.724 289.875 298.17C287.277 294.615 284.093 292.838 280.324 292.838C278.839 292.838 277.394 293.111 275.988 293.658C274.601 294.205 273.4 295.084 272.384 296.295C271.388 297.486 270.636 298.863 270.129 300.425C269.152 303.316 268.664 306.314 268.664 309.42C268.664 312.525 269.015 315.269 269.718 317.652C270.422 320.035 271.379 322.007 272.589 323.57ZM312.931 313.287L313.107 303.795C313.107 301.88 313.068 300.172 312.99 298.668C312.931 297.144 312.755 296.119 312.463 295.591C312.189 295.045 311.916 294.693 311.642 294.537C311.369 294.361 311.095 294.224 310.822 294.127C310.548 294.029 310.392 293.98 310.353 293.98C310.041 293.902 309.884 293.384 309.884 292.427C309.884 291.451 309.923 290.845 310.002 290.611C316.798 289.107 321.935 288.355 325.412 288.355C333.713 288.355 340.158 290.357 344.748 294.361C348.615 297.72 350.548 302.447 350.548 308.541C350.548 313.423 349.386 317.691 347.062 321.343C344.738 324.976 341.535 327.74 337.453 329.634C333.39 331.509 328.722 332.447 323.449 332.447C320.558 332.447 317.853 332.203 315.334 331.714C314.045 331.187 313.312 329.839 313.136 327.672C313 325.992 312.931 323.463 312.931 320.084V313.287ZM321.925 302.066L321.632 319.879V321.871C321.632 325.601 321.974 327.74 322.658 328.287C323.361 328.404 324.113 328.463 324.914 328.463C325.714 328.463 326.789 328.433 328.136 328.375C329.484 328.297 330.92 327.877 332.443 327.115C333.986 326.353 335.402 325.259 336.691 323.834C337.98 322.408 339.005 320.513 339.767 318.15C340.529 315.767 340.91 313.218 340.91 310.504C340.91 307.769 340.597 305.406 339.972 303.414C339.367 301.422 338.566 299.771 337.57 298.463C336.593 297.154 335.461 296.05 334.172 295.152C331.711 293.453 329.181 292.603 326.584 292.603C323.986 292.603 322.199 292.74 321.222 293.013C321.691 295.064 321.925 297.496 321.925 300.308V302.066Z" fill="#F8F8F8"/>
</svg>
